<mxfile host="Electron" modified="2023-07-13T09:48:59.775Z" agent="Mozilla/5.0 (Windows NT 10.0; Win64; x64) AppleWebKit/537.36 (KHTML, like Gecko) draw.io/21.6.1 Chrome/112.0.5615.204 Electron/24.6.1 Safari/537.36" etag="6iqHp8_IPURoFRAIkhB0" version="21.6.1" type="device">
  <diagram name="第 1 页" id="4pAfD0O1tKjeyu32hNOo">
    <mxGraphModel dx="1195" dy="697" grid="0" gridSize="10" guides="1" tooltips="1" connect="1" arrows="1" fold="1" page="1" pageScale="1" pageWidth="827" pageHeight="1169" math="0" shadow="0">
      <root>
        <mxCell id="0" />
        <mxCell id="1" parent="0" />
        <mxCell id="gvrwS1-v2e2lar5F2JRC-10" value="智慧景区管理系统" style="swimlane;whiteSpace=wrap;html=1;fillColor=#f5f5f5;fontColor=#333333;strokeColor=#666666;" vertex="1" parent="1">
          <mxGeometry x="40" y="570" width="760" height="470" as="geometry" />
        </mxCell>
        <mxCell id="gvrwS1-v2e2lar5F2JRC-1" value="空间分析算法模块" style="rounded=0;whiteSpace=wrap;html=1;fillColor=#dae8fc;strokeColor=#6c8ebf;" vertex="1" parent="gvrwS1-v2e2lar5F2JRC-10">
          <mxGeometry x="225" y="280" width="450" height="170" as="geometry" />
        </mxCell>
        <mxCell id="gvrwS1-v2e2lar5F2JRC-2" value="自定义空间实体数据结构" style="rounded=0;whiteSpace=wrap;html=1;fillColor=#e1d5e7;strokeColor=#9673a6;" vertex="1" parent="gvrwS1-v2e2lar5F2JRC-10">
          <mxGeometry x="355" y="390" width="150" height="60" as="geometry" />
        </mxCell>
        <mxCell id="gvrwS1-v2e2lar5F2JRC-3" value="" style="rounded=0;whiteSpace=wrap;html=1;fillColor=#fff2cc;strokeColor=#d6b656;" vertex="1" parent="gvrwS1-v2e2lar5F2JRC-10">
          <mxGeometry x="225" y="90" width="220" height="170" as="geometry" />
        </mxCell>
        <mxCell id="gvrwS1-v2e2lar5F2JRC-4" value="地图模块" style="text;html=1;align=center;verticalAlign=middle;resizable=0;points=[];autosize=1;strokeColor=none;fillColor=none;" vertex="1" parent="gvrwS1-v2e2lar5F2JRC-10">
          <mxGeometry x="225" y="90" width="70" height="30" as="geometry" />
        </mxCell>
        <mxCell id="gvrwS1-v2e2lar5F2JRC-5" value="统计图表模块" style="rounded=0;whiteSpace=wrap;html=1;fillColor=#d5e8d4;strokeColor=#82b366;" vertex="1" parent="gvrwS1-v2e2lar5F2JRC-10">
          <mxGeometry x="455" y="90" width="220" height="170" as="geometry" />
        </mxCell>
        <mxCell id="gvrwS1-v2e2lar5F2JRC-7" value="二维地图模块" style="rounded=0;whiteSpace=wrap;html=1;" vertex="1" parent="gvrwS1-v2e2lar5F2JRC-10">
          <mxGeometry x="275" y="120" width="120" height="60" as="geometry" />
        </mxCell>
        <mxCell id="gvrwS1-v2e2lar5F2JRC-8" value="三维维地图模块" style="rounded=0;whiteSpace=wrap;html=1;" vertex="1" parent="gvrwS1-v2e2lar5F2JRC-10">
          <mxGeometry x="275" y="190" width="120" height="60" as="geometry" />
        </mxCell>
        <mxCell id="gvrwS1-v2e2lar5F2JRC-9" value="用户信息管理模块" style="rounded=0;whiteSpace=wrap;html=1;fillColor=#f8cecc;strokeColor=#b85450;" vertex="1" parent="gvrwS1-v2e2lar5F2JRC-10">
          <mxGeometry x="95" y="90" width="120" height="360" as="geometry" />
        </mxCell>
      </root>
    </mxGraphModel>
  </diagram>
</mxfile>
